<svg width="45" height="33" viewBox="0 0 45 33" fill="none" xmlns="http://www.w3.org/2000/svg">
<path d="M0.427734 33V0.788086H17.0171C20.0933 0.788086 22.4443 1.05176 24.0703 1.5791C25.6963 2.10645 27.0073 3.08789 28.0034 4.52344C28.9995 5.94434 29.4976 7.68018 29.4976 9.73096C29.4976 11.5181 29.1167 13.0635 28.355 14.3672C27.5933 15.6562 26.5459 16.7036 25.2129 17.5093C24.3633 18.022 23.1987 18.4468 21.7192 18.7837C22.9058 19.1792 23.77 19.5747 24.312 19.9702C24.6782 20.2339 25.2056 20.7979 25.894 21.6621C26.5972 22.5264 27.0659 23.1929 27.3003 23.6616L32.1123 33H20.8623L15.5449 23.1562C14.8711 21.8818 14.2705 21.0542 13.7432 20.6733C13.0254 20.1753 12.2124 19.9263 11.3042 19.9263H10.4253V33H0.427734ZM10.4253 13.8398H14.6221C15.0762 13.8398 15.9551 13.6934 17.2588 13.4004C17.918 13.2686 18.4526 12.9316 18.8628 12.3896C19.2876 11.8477 19.5 11.2251 19.5 10.522C19.5 9.48193 19.1704 8.68359 18.5112 8.12695C17.8521 7.57031 16.6143 7.29199 14.7979 7.29199H10.4253V13.8398ZM34.749 24.0352H44.3071V33H34.749V24.0352Z" fill="white"/>
</svg>
